<svg width="16" height="16" viewBox="0 0 16 16" fill="none" xmlns="http://www.w3.org/2000/svg"><path d="M8.17005 11.965L6.51092 13.6226C5.95087 14.1571 5.20369 14.4514 4.42921 14.4426C3.65474 14.4337 2.91449 14.1224 2.36682 13.5753C1.81915 13.0281 1.50756 12.2885 1.4987 11.5147C1.48985 10.741 1.78443 9.99446 2.31944 9.43492L3.97857 7.7773C4.04594 7.70999 4.09938 7.63008 4.13584 7.54214C4.1723 7.45419 4.19107 7.35993 4.19107 7.26474C4.19107 7.16955 4.1723 7.0753 4.13584 6.98735C4.09938 6.89941 4.04594 6.8195 3.97857 6.75219C3.9112 6.68488 3.83122 6.63149 3.74319 6.59506C3.65517 6.55863 3.56082 6.53988 3.46555 6.53988C3.37027 6.53988 3.27593 6.55863 3.1879 6.59506C3.09988 6.63149 3.0199 6.68488 2.95253 6.75219L1.2934 8.40981C0.465192 9.23834 0 10.3614 0 11.5324C0 12.7033 0.465192 13.8264 1.2934 14.655C2.15207 15.5129 3.28726 15.9491 4.41518 15.9491C5.54309 15.9491 6.67829 15.5201 7.53696 14.655L9.19609 12.9973C9.47989 12.7138 9.47989 12.2558 9.19609 11.9722C8.91229 11.6887 8.45384 11.6814 8.17005 11.965ZM13.6277 2.3246C14.1833 2.88002 14.4955 3.63316 14.4955 4.41844C14.4955 5.20371 14.1833 5.95685 13.6277 6.51227L11.9686 8.16989C11.867 8.27142 11.798 8.40081 11.7702 8.54163C11.7424 8.68245 11.7571 8.82835 11.8125 8.9608C11.8678 9.09324 11.9613 9.20626 12.0811 9.2855C12.2009 9.36474 12.3416 9.40662 12.4852 9.40584C12.6744 9.40584 12.8564 9.33313 13.0019 9.195L14.661 7.53738C15.4892 6.70885 15.9544 5.58576 15.9544 4.4148C15.9544 3.24384 15.4892 2.12076 14.661 1.29223C13.8317 0.464769 12.7076 0 11.5356 0C10.3636 0 9.23947 0.464769 8.41018 1.29223L6.75106 2.94984C6.68369 3.01715 6.63024 3.09706 6.59378 3.18501C6.55732 3.27295 6.53856 3.36721 6.53856 3.4624C6.53856 3.55759 6.55732 3.65185 6.59378 3.73979C6.63024 3.82773 6.68369 3.90764 6.75106 3.97495C6.81843 4.04226 6.89841 4.09565 6.98643 4.13208C7.07446 4.16851 7.1688 4.18726 7.26408 4.18726C7.35935 4.18726 7.4537 4.16851 7.54172 4.13208C7.62974 4.09565 7.70972 4.04226 7.7771 3.97495L9.43622 2.31733C9.99479 1.76635 10.7485 1.458 11.5335 1.45937C12.3184 1.46073 13.0711 1.77169 13.6277 2.3246ZM11.8885 12.503C11.8562 12.4131 11.8064 12.3306 11.742 12.26C11.6776 12.1894 11.6 12.1322 11.5134 12.0917C11.4269 12.0512 11.3332 12.0281 11.2378 12.0238C11.1423 12.0195 11.0469 12.0341 10.9571 12.0668C10.5787 12.2049 10.3822 12.6193 10.5205 12.9973L11.4374 15.5201C11.4697 15.61 11.5195 15.6925 11.5839 15.7631C11.6482 15.8337 11.7259 15.8909 11.8125 15.9314C11.899 15.9719 11.9927 15.995 12.0881 15.9993C12.1836 16.0036 12.279 15.989 12.3688 15.9563C12.7472 15.8182 12.9437 15.4038 12.8054 15.0257L11.8885 12.503ZM15.5197 11.1071L12.9946 10.191C12.9048 10.1584 12.8094 10.1438 12.714 10.1481C12.6185 10.1524 12.5248 10.1754 12.4383 10.216C12.3517 10.2565 12.2741 10.3137 12.2097 10.3843C12.1453 10.4548 12.0955 10.5374 12.0632 10.6272C11.9249 11.0053 12.1214 11.4197 12.4998 11.5578L15.0249 12.4739C15.1147 12.5065 15.2101 12.5211 15.3055 12.5168C15.401 12.5125 15.4947 12.4895 15.5812 12.4489C15.6677 12.4084 15.7454 12.3512 15.8098 12.2807C15.8742 12.2101 15.9239 12.1275 15.9563 12.0377C15.989 11.9479 16.0036 11.8526 15.9993 11.7573C15.995 11.6619 15.9719 11.5683 15.9313 11.4818C15.8908 11.3954 15.8335 11.3178 15.7629 11.2535C15.6923 11.1892 15.6096 11.1394 15.5197 11.1071ZM4.18232 3.58236C4.21468 3.6722 4.26447 3.75477 4.32884 3.82535C4.3932 3.89592 4.47088 3.95311 4.55741 3.99363C4.64394 4.03416 4.73763 4.05722 4.8331 4.0615C4.92857 4.06578 5.02394 4.05119 5.11376 4.01857C5.49216 3.88044 5.68863 3.46603 5.55037 3.08798L4.63349 0.565199C4.60112 0.47536 4.55133 0.392786 4.48697 0.322211C4.4226 0.251635 4.34493 0.194446 4.2584 0.153921C4.17186 0.113397 4.07818 0.0903334 3.98271 0.086054C3.88724 0.0817746 3.79186 0.096363 3.70205 0.128983C3.32365 0.267118 3.12717 0.681523 3.26543 1.05958L4.18232 3.58236ZM0.551159 4.97825L3.07623 5.8943C3.16605 5.92692 3.26143 5.94151 3.3569 5.93723C3.45237 5.93295 3.54605 5.90989 3.63259 5.86936C3.71912 5.82884 3.79679 5.77165 3.86116 5.70107C3.92552 5.6305 3.97531 5.54792 4.00767 5.45808C4.04032 5.36835 4.05493 5.27306 4.05064 5.17768C4.04636 5.08229 4.02328 4.98869 3.98271 4.90224C3.94215 4.81579 3.88491 4.73818 3.81427 4.67388C3.74363 4.60957 3.66098 4.55982 3.57106 4.52749L1.04599 3.61144C0.956171 3.57882 0.860794 3.56423 0.765324 3.56851C0.669853 3.57279 0.576167 3.59585 0.489636 3.63638C0.403105 3.6769 0.32543 3.73409 0.261064 3.80467C0.196699 3.87524 0.146908 3.95782 0.114547 4.04765C-0.023714 4.42571 0.172762 4.84011 0.551159 4.97825Z" fill="#FF7D7D"></path></svg>