<svg width="28" height="29" viewBox="0 0 28 29" fill="none" xmlns="http://www.w3.org/2000/svg">
<circle cx="14" cy="14.875" r="13.75" fill="#A5FFBE"/>
<path d="M0 14.875C0 20.975 3.9 26.175 9.4 28.075C10.1 28.275 10 27.775 10 27.375V24.975C5.8 25.475 5.6 22.675 5.3 22.175C4.7 21.175 3.4 20.975 3.8 20.475C4.8 19.975 5.8 20.575 6.9 22.275C7.7 23.475 9.3 23.275 10.2 23.075C10.4 22.375 10.8 21.675 11.3 21.175C6.8 20.475 5 17.775 5 14.575C5 13.075 5.5 11.575 6.5 10.475C5.8 8.575 6.5 6.875 6.6 6.675C8.4 6.475 10.3 7.975 10.5 8.075C11.5 7.775 12.7 7.675 14 7.675C15.3 7.675 16.5 7.875 17.5 8.075C17.9 7.775 19.6 6.575 21.3 6.675C21.4 6.875 22.1 8.475 21.5 10.375C22.5 11.575 23 12.975 23 14.475C23 17.675 21.2 20.375 16.7 21.175C17.4 21.875 17.9 22.875 17.9 24.075V27.575C17.9 27.875 17.9 28.175 18.4 28.175C24 26.275 28 21.075 28 14.875C28 7.175 21.7 0.875 14 0.875C6.3 0.875 0 7.175 0 14.875Z" fill="#454545"/>
</svg>
