<svg xmlns="http://www.w3.org/2000/svg" width="67" height="19" viewBox="0 0 67 19" fill="none">
  <path fill-rule="evenodd" clip-rule="evenodd" d="M3.14473 0.598992C3.76624 0.336482 4.43309 0.199652 5.1072 0.19629C5.77934 0.196007 6.44479 0.330226 7.06478 0.591104C7.68481 0.851983 8.24698 1.23431 8.71853 1.71582C9.67962 2.69158 10.2175 4.01018 10.2145 5.38343V7.0968C10.2145 7.64468 10.1072 8.18726 9.89869 8.69343C9.69014 9.19961 9.38452 9.65956 8.99918 10.047C8.61385 10.4344 8.15636 10.7417 7.65293 10.9514C7.18287 11.1471 6.68128 11.2542 6.17327 11.2675H10.2147V12.957C10.2216 13.6358 10.0946 14.3092 9.84104 14.9383C9.5875 15.5674 9.21241 16.1397 8.73748 16.6222C8.26255 17.1045 7.69716 17.4875 7.07412 17.7489C6.45102 18.0103 5.78261 18.1449 5.10748 18.1449C4.43236 18.1449 3.76393 18.0103 3.14086 17.7489C2.51779 17.4875 1.95244 17.1045 1.4775 16.6222C1.00257 16.1397 0.627472 15.5674 0.373913 14.9383C0.120352 14.3092 -0.0066453 13.6358 0.000267792 12.957V11.2675C0.0002209 10.7196 0.107516 10.177 0.316035 9.67086C0.524554 9.16463 0.830217 8.70468 1.21555 8.31725C1.60088 7.92982 2.05834 7.62254 2.56181 7.41285C3.03239 7.21692 3.53455 7.1099 4.04313 7.0968H6.83329e-05V5.38343C-0.00340995 4.70566 0.125933 4.03384 0.38072 3.40633C0.635509 2.77883 1.01074 2.20793 1.485 1.72625C1.95925 1.24457 2.52323 0.861501 3.14473 0.598992ZM4.14964 7.09543C4.14971 7.09543 4.14978 7.09543 4.14984 7.09543V13.7498C4.14982 13.8663 4.17264 13.9818 4.21699 14.0895C4.26134 14.1972 4.32636 14.295 4.40834 14.3774C4.49032 14.4599 4.58764 14.5252 4.69476 14.5699C4.80186 14.6144 4.91667 14.6374 5.0326 14.6374H5.1822C5.29814 14.6374 5.41295 14.6144 5.52005 14.5699C5.6272 14.5252 5.72453 14.4599 5.8065 14.3775C5.88848 14.2951 5.95354 14.1972 5.99794 14.0895C6.04228 13.9818 6.06515 13.8664 6.06515 13.7498V11.2689C6.06507 11.2689 6.065 11.2689 6.06493 11.2689V4.61448C6.06493 4.4979 6.04212 4.38246 5.99777 4.27475C5.95338 4.16704 5.88837 4.06916 5.8064 3.98673C5.72437 3.90428 5.62704 3.83892 5.51989 3.79432C5.41279 3.74971 5.29795 3.72677 5.182 3.72679H5.0324C4.91645 3.72677 4.80163 3.7497 4.69451 3.79432C4.58739 3.83892 4.49005 3.90428 4.40807 3.98673C4.3261 4.06917 4.26108 4.16704 4.21674 4.27475C4.1724 4.38246 4.1496 4.4979 4.14964 4.61448V7.09543ZM15.8532 5.46395H17.3076L17.3077 11.4835H20.1218V12.8821H15.8532V5.46395ZM24.013 7.6169C24.3116 7.75132 24.5743 7.9551 24.7794 8.21144V7.58657H26.1392V12.8852H24.7794V12.2599C24.372 12.7756 23.7993 13.0335 23.0614 13.0335C22.72 13.0361 22.382 12.9652 22.0702 12.8254C21.7583 12.6855 21.4799 12.4801 21.2538 12.2229C20.7684 11.676 20.5002 10.9688 20.5002 10.2358C20.5002 9.50284 20.7684 8.79556 21.2538 8.24875C21.4799 7.99145 21.7582 7.7859 22.0701 7.646C22.3819 7.5061 22.7199 7.43513 23.0614 7.43782C23.3882 7.42107 23.7144 7.48243 24.013 7.6169ZM23.882 11.6296C24.0623 11.5576 24.2262 11.4493 24.3633 11.3113C24.631 11.0177 24.7794 10.6338 24.7794 10.2356C24.7794 9.83723 24.631 9.45345 24.3633 9.1598C24.2261 9.02189 24.0623 8.91367 23.8819 8.84173C23.7016 8.7698 23.5085 8.73565 23.3146 8.7414C23.1214 8.73528 22.9289 8.76926 22.7494 8.84125C22.5698 8.91324 22.407 9.02168 22.2709 9.1598C22.0063 9.4549 21.8598 9.83814 21.8598 10.2356C21.8598 10.6329 22.0063 11.0162 22.2709 11.3113C22.4069 11.4495 22.5697 11.5581 22.7493 11.6301C22.9289 11.7021 23.1213 11.736 23.3146 11.7298C23.5085 11.7357 23.7016 11.7016 23.882 11.6296ZM28.2679 7.5819L29.6424 11.1433L30.807 7.58228H32.2615L30.3402 12.8896C30.0659 13.6461 29.7026 14.1959 29.2504 14.5391C28.7608 14.8925 28.1608 15.0563 27.5607 15.0006V13.7287C27.8685 13.7518 28.175 13.6696 28.4305 13.4954C28.6735 13.2899 28.8513 13.0173 28.9417 12.7112L26.7817 7.5819H28.2679ZM34.1193 7.62576C34.464 7.48801 34.8333 7.4237 35.204 7.4368C35.5615 7.42638 35.9171 7.49284 36.2471 7.63172C36.577 7.7706 36.8736 7.97873 37.1172 8.24215C37.6199 8.78026 37.8908 9.49634 37.8706 10.2344C37.8696 10.4229 37.8519 10.611 37.818 10.7964H33.8443C34.027 11.4604 34.5223 11.7924 35.3305 11.7924C35.5553 11.8068 35.7802 11.7661 35.9858 11.6738C36.1914 11.5815 36.3717 11.4404 36.5111 11.2625L37.6072 11.8986C37.087 12.6543 36.321 13.0322 35.3095 13.0322C34.4382 13.0321 33.7391 12.7672 33.2119 12.2375C32.706 11.6963 32.4234 10.9821 32.4215 10.2394C32.4196 9.49661 32.6985 8.78091 33.2016 8.2371C33.4622 7.97169 33.7746 7.76351 34.1193 7.62576ZM34.2975 8.94679C34.0515 9.14536 33.8835 9.42516 33.8233 9.73652L36.5109 9.73636C36.4581 9.41662 36.2868 9.12888 36.0314 8.93117C35.7913 8.75519 35.5009 8.66216 35.2038 8.66603C34.8787 8.6533 34.5591 8.7524 34.2975 8.94679ZM40.1792 7.58271V8.49435C40.291 8.173 40.5134 7.90239 40.8063 7.73152C41.1029 7.5607 41.4396 7.47287 41.7814 7.47722V9.00283C41.3922 8.94754 40.9963 9.0381 40.6692 9.25718C40.3425 9.47626 40.1792 9.84012 40.1792 10.3488V12.8815H38.8194V7.58271H40.1792ZM48.4099 5.46392V6.61121L45.3382 11.4833H48.4686V12.8819H43.4957V11.7138L46.5671 6.86287H43.5735V5.46392H48.4099ZM50.5934 7.62576C50.9381 7.48801 51.3075 7.4237 51.6782 7.4368C52.0357 7.42638 52.3913 7.49284 52.7212 7.63172C53.0511 7.7706 53.3478 7.97873 53.5913 8.24215C54.0941 8.78026 54.3652 9.49634 54.3448 10.2344C54.3437 10.4229 54.326 10.611 54.2922 10.7964H50.3186C50.501 11.4604 50.9964 11.7924 51.8047 11.7924C52.0295 11.8067 52.2543 11.7661 52.4599 11.6737C52.6655 11.5814 52.8457 11.4403 52.9851 11.2625L54.0812 11.8986C53.561 12.6543 52.7951 13.0322 51.7835 13.0322C50.9123 13.0321 50.2132 12.7672 49.6861 12.2375C49.1801 11.6964 48.8974 10.9821 48.8955 10.2394C48.8935 9.49666 49.1724 8.78091 49.6756 8.2371C49.9362 7.97169 50.2487 7.76351 50.5934 7.62576ZM50.7718 8.94679C50.5257 9.14531 50.3577 9.42516 50.2975 9.73652L52.9851 9.73636C52.9324 9.41662 52.7612 9.12888 52.5057 8.93117C52.2657 8.75509 51.9753 8.66205 51.6782 8.66608C51.3531 8.65325 51.0334 8.7523 50.7718 8.94679ZM56.6532 7.58271V8.49435C56.7648 8.17295 56.9871 7.90239 57.2802 7.73152C57.5765 7.5607 57.9136 7.47287 58.2551 7.47722V9.00283C57.8659 8.94759 57.4702 9.0381 57.1433 9.25718C56.8164 9.47626 56.6532 9.84012 56.6532 10.3488V12.8815H55.2934V7.58271H56.6532ZM59.6127 8.08357C60.1017 7.67177 60.7175 7.44292 61.3558 7.43583C61.7235 7.42735 62.0891 7.49494 62.43 7.6344C62.7709 7.77392 63.0795 7.98232 63.3372 8.24676C63.7887 8.69979 64.0705 9.29599 64.1349 9.93423C64.1988 10.5725 64.0415 11.2133 63.6888 11.748C63.3361 12.2826 62.8106 12.6782 62.2013 12.8675C61.5914 13.0567 60.9354 13.0279 60.3444 12.7861C59.7539 12.5443 59.2643 12.1043 58.9594 11.5408C58.6545 10.9773 58.553 10.3251 58.6722 9.69491C58.7908 9.06473 59.1236 8.49537 59.6127 8.08357ZM61.9093 11.5956C62.0853 11.5245 62.2448 11.4181 62.3779 11.2827C62.642 10.998 62.7891 10.623 62.7891 10.2335C62.7891 9.8441 62.642 9.46912 62.3779 9.18433C62.2448 9.04905 62.0853 8.9426 61.9093 8.87163C61.7332 8.80061 61.5453 8.76652 61.3558 8.77151C61.1668 8.76614 60.9789 8.80013 60.8039 8.87115C60.6289 8.94217 60.47 9.04879 60.338 9.18433C60.0771 9.47079 59.9321 9.84512 59.9321 10.2335C59.9321 10.622 60.0771 10.9963 60.338 11.2827C60.47 11.4183 60.6289 11.525 60.8039 11.596C60.9789 11.6671 61.1668 11.7009 61.3558 11.6955C61.5453 11.7006 61.7337 11.6665 61.9093 11.5956ZM65.3455 11.2517H67V12.8837H65.3455V11.2517Z" fill="white"/>
</svg>