<svg width="56" height="56" viewBox="0 0 56 56" fill="none" xmlns="http://www.w3.org/2000/svg">
<path d="M5.25 35V50.75H21V56H5.25C3.85761 56 2.52226 55.4469 1.53769 54.4623C0.553123 53.4777 0 52.1424 0 50.75V35H5.25ZM56 35V50.75C56 52.1424 55.4469 53.4777 54.4623 54.4623C53.4777 55.4469 52.1424 56 50.75 56H35V50.75H50.75V35H56ZM27.125 11.9C29.8284 11.8999 32.474 12.6824 34.7423 14.1532C37.0106 15.6239 38.8046 17.72 39.9076 20.1881C41.0105 22.6563 41.3753 25.391 40.9578 28.0619C40.5404 30.7329 39.3585 33.2259 37.555 35.2398L42.8313 40.5195L39.1195 44.2295L33.3375 38.4493C31.4469 39.3842 29.3695 39.88 27.2605 39.8994C25.1514 39.9189 23.0652 39.4615 21.1577 38.5616C19.2502 37.6616 17.5707 36.3423 16.2446 34.7022C14.9185 33.062 13.9801 31.1435 13.4996 29.0898C13.019 27.0362 13.0087 24.9004 13.4694 22.8422C13.93 20.784 14.8498 18.8564 16.1599 17.2036C17.4701 15.5507 19.1368 14.2152 21.0355 13.2968C22.9342 12.3785 25.0159 11.901 27.125 11.9ZM27.125 17.15C24.8044 17.15 22.5788 18.0719 20.9378 19.7128C19.2969 21.3538 18.375 23.5794 18.375 25.9C18.375 28.2206 19.2969 30.4462 20.9378 32.0872C22.5788 33.7281 24.8044 34.65 27.125 34.65C29.4456 34.65 31.6712 33.7281 33.3122 32.0872C34.9531 30.4462 35.875 28.2206 35.875 25.9C35.875 23.5794 34.9531 21.3538 33.3122 19.7128C31.6712 18.0719 29.4456 17.15 27.125 17.15ZM50.75 0C51.4394 0 52.1221 0.135795 52.7591 0.399632C53.396 0.663469 53.9748 1.05018 54.4623 1.53769C54.9498 2.0252 55.3365 2.60395 55.6004 3.24091C55.8642 3.87787 56 4.56056 56 5.25V21H50.75V5.25H35V0H50.75ZM21 0V5.25H5.25V21H0V5.25C0 3.85761 0.553123 2.52226 1.53769 1.53769C2.52226 0.553123 3.85761 0 5.25 0H21Z" fill="#213425"/>
</svg>
