<svg width="50" height="50" viewBox="0 0 50 50" fill="none" xmlns="http://www.w3.org/2000/svg">
<circle cx="25" cy="25" r="24.5" fill="#151815" stroke="#A5FFBE"/>
<path d="M12.355 22.7726H39.5095C39.8064 22.7084 40.0778 22.5633 40.291 22.3545C40.5043 22.1457 40.6503 21.8821 40.7116 21.5954C40.7729 21.3088 40.7469 21.0112 40.6367 20.7384C40.5265 20.4656 40.3367 20.2292 40.0902 20.0575L29.9472 13.2095C29.6383 13.023 29.2668 12.9577 28.9093 13.027C28.5518 13.0964 28.2357 13.2952 28.0262 13.5823C27.8167 13.8694 27.7298 14.223 27.7835 14.5699C27.8372 14.9168 28.0274 15.2307 28.3148 15.4466L35.1123 20.0358H12.355C11.9898 20.0526 11.6453 20.2039 11.393 20.4584C11.1407 20.7129 11 21.051 11 21.4026C11 21.7543 11.1407 22.0924 11.393 22.3469C11.6453 22.6014 11.9898 22.7527 12.355 22.7695V22.7726ZM39.5095 28.2305H12.355C12.0581 28.2947 11.7867 28.4398 11.5735 28.6486C11.3603 28.8574 11.2142 29.121 11.1529 29.4077C11.0916 29.6943 11.1176 29.9919 11.2278 30.2647C11.3381 30.5375 11.5278 30.7739 11.7743 30.9456L21.9205 37.7905C22.2294 37.977 22.601 38.0423 22.9585 37.973C23.3159 37.9036 23.6321 37.7048 23.8416 37.4177C24.0511 37.1306 24.138 36.777 24.0842 36.4301C24.0305 36.0832 23.8404 35.7693 23.553 35.5534L16.7555 30.9642H39.5095C39.7019 30.973 39.894 30.9442 40.0744 30.8795C40.2548 30.8148 40.4197 30.7155 40.5591 30.5877C40.6984 30.4599 40.8093 30.3063 40.8851 30.136C40.9609 29.9658 41 29.7825 41 29.5974C41 29.4122 40.9609 29.2289 40.8851 29.0587C40.8093 28.8885 40.6984 28.7348 40.5591 28.607C40.4197 28.4792 40.2548 28.38 40.0744 28.3153C39.894 28.2505 39.7019 28.2217 39.5095 28.2305Z" fill="#A5FFBE"/>
</svg>