<svg width="28" height="28" viewBox="0 0 28 28" fill="none" xmlns="http://www.w3.org/2000/svg">
<circle cx="14" cy="14" r="12" fill="#A5FFBE"/>
<path d="M18.578 20.422L20.875 9.59399C21.078 8.64101 20.531 8.26599 19.906 8.5L6.40601 13.703C5.48398 14.062 5.5 14.578 6.24999 14.812L9.70301 15.89L17.719 10.843C18.094 10.593 18.438 10.734 18.157 10.984L11.673 16.843L11.423 20.406C11.782 20.406 11.939 20.25 12.126 20.062L13.813 18.437L17.313 21.015C17.954 21.374 18.407 21.187 18.579 20.421L18.578 20.422ZM28 14C28 21.734 21.734 28 14 28C6.26601 28 0 21.734 0 14C0 6.26601 6.26601 0 14 0C21.734 0 28 6.26601 28 14Z" fill="#454545"/>
</svg>
