<svg width="28" height="28" viewBox="0 0 28 28" fill="none" xmlns="http://www.w3.org/2000/svg">
<path d="M14 28C21.732 28 28 21.732 28 14C28 6.26801 21.732 0 14 0C6.26801 0 0 6.26801 0 14C0 21.732 6.26801 28 14 28Z" fill="#454545"/>
<path d="M22.0399 9.66001C21.4652 9.92149 20.8538 10.0932 20.2269 10.169C20.8906 9.75914 21.3836 9.12299 21.6149 8.37801C20.9966 8.75413 20.3174 9.01944 19.6079 9.16201C19.3168 8.84099 18.9618 8.58428 18.5658 8.40829C18.1697 8.23231 17.7413 8.14094 17.3079 8.14001C16.4596 8.15082 15.6502 8.4981 15.0578 9.10548C14.4654 9.71287 14.1385 10.5306 14.1489 11.379C14.1484 11.6269 14.1755 11.8741 14.2299 12.116C12.9667 12.0473 11.7327 11.7099 10.6103 11.1264C9.48783 10.5428 8.50279 9.72654 7.72093 8.73202C7.44011 9.22895 7.29298 9.79022 7.29393 10.361C7.29042 10.8909 7.41607 11.4137 7.66 11.8842C7.90393 12.3546 8.25881 12.7585 8.69393 13.061C8.19189 13.0455 7.70115 12.9082 7.26393 12.661V12.701C7.25709 13.4406 7.50522 14.1599 7.96656 14.738C8.42789 15.3161 9.07427 15.7176 9.79693 15.875C9.3325 16.0048 8.84411 16.024 8.37093 15.931C8.56413 16.5679 8.95298 17.1279 9.48231 17.5314C10.0116 17.9349 10.6546 18.1615 11.3199 18.179C10.6703 18.7028 9.92215 19.0908 9.11979 19.3202C8.31744 19.5495 7.47722 19.6154 6.64893 19.514C8.08548 20.4621 9.76872 20.9677 11.4899 20.968C12.6869 20.9603 13.8704 20.715 14.9718 20.2465C16.0733 19.778 17.0708 19.0956 17.9065 18.2387C18.7423 17.3818 19.3997 16.3676 19.8405 15.2548C20.2814 14.142 20.4971 12.9528 20.4749 11.756C20.4749 11.615 20.4749 11.474 20.4669 11.337C21.0873 10.8767 21.6204 10.3091 22.0409 9.66101" fill="#A5FFBE"/>
</svg>
